<mxfile host="app.diagrams.net" modified="2023-05-24T12:48:06.522Z" agent="Mozilla/5.0 (Windows NT 10.0; Win64; x64) AppleWebKit/537.36 (KHTML, like Gecko) Chrome/113.0.0.0 Safari/537.36 Edg/113.0.1774.50" version="21.3.3" etag="1DZDMcPxHn_EDkuolLeu" type="github">
  <diagram name="Seite-1" id="OMn4Qt6m-okBMg1prN6X">
    <mxGraphModel>
      <root>
        <mxCell id="0" />
        <mxCell id="1" parent="0" />
      </root>
    </mxGraphModel>
  </diagram>
</mxfile>
